#!OML:ASF H:\BreakDance\Project 1\Capture day 1\Session 1\Male.ASF
:FULLY-SPECIFIED
:DEGREES
508
root 17.3944 16.3241 -0.0348431 -131.601 -87.0025 140.227
lowerback -7.13955 1.29435 -1.64128
upperback 2.62029 1.98416 -1.72346
thorax 6.75836 0.936847 -0.627514
lowerneck 1.22089 0.0583086 -2.49658
upperneck 0.757689 0.0321561 3.16507
head 0.0278347 0.00507325 1.39187
rclavicle -2.62893e-014 1.82882e-014
rhumerus -39.1131 7.6609 -91.0002
rradius 65.3049
rwrist -0.115383
rhand -31.053 -21.0947
rfingers 7.12502
rthumb -4.33435 -51.0303
lclavicle -2.62893e-014 1.82882e-014
lhumerus -38.3117 -23.8399 92.4561
lradius 67.3379
lwrist 4.10969
lhand -35.4111 -21.6919
lfingers 7.12502
lthumb -8.54154 8.11535
rfemur -22.1926 -1.98146 9.47482
rtibia 39.7053
rfoot -27.4765 -12.6687
rtoes -0.547973
lfemur -14.6527 5.60449 -10.8545
ltibia 29.6143
lfoot -28.4639 22.3805
ltoes -24.499
509
root 17.3901 16.3263 -0.0793669 -133.672 -86.9857 142.572
lowerback -6.8637 1.29185 -1.76493
upperback 2.62815 1.98688 -1.79181
thorax 6.60658 0.934973 -0.635622
lowerneck 1.72244 0.136481 -2.36192
upperneck -1.24638 0.174199 3.27902
head -0.679034 0.0670281 1.40923
rclavicle 5.61567e-015 -1.07344e-014
rhumerus -40.249 7.72 -91.6069
rradius 66.3217
rwrist -0.457319
rhand -30.2119 -21.0771
rfingers 7.12502
rthumb -3.52206 -51.0277
lclavicle 5.61567e-015 -1.07344e-014
lhumerus -39.7695 -25.0092 92.8436
lradius 68.8663
lwrist 5.36523
lhand -34.8355 -21.5558
lfingers 7.12502
lthumb -7.98603 8.2733
rfemur -22.7654 -2.40082 9.80082
rtibia 40.0691
rfoot -27.6311 -11.7649
rtoes 0.228021
lfemur -14.9776 6.02623 -10.5178
ltibia 29.7451
lfoot -27.8044 22.0073
ltoes -25.4827
510
root 17.387 16.3274 -0.127737 -134.913 -87.0908 144.073
lowerback -6.56776 1.2792 -1.82307
upperback 2.64456 1.96945 -1.8782
thorax 6.45526 0.926331 -0.702026
lowerneck 2.32842 0.197065 -2.1938
upperneck -3.36819 0.29518 3.42464
head -1.45481 0.10865 1.43997
rclavicle 2.68359e-015 -1.94809e-014
rhumerus -41.4615 7.61266 -92.2575
rradius 67.4069
rwrist -0.822984
rhand -29.1813 -20.7105
rfingers 7.12502
rthumb -2.52683 -50.6753
lclavicle 2.68359e-015 -1.94809e-014
lhumerus -41.2711 -26.2278 93.2315
lradius 70.4153
lwrist 6.4729
lhand -34.0362 -21.32
lfingers 7.12502
lthumb -7.21452 8.53706
rfemur -23.2528 -2.88019 10.1929
rtibia 40.3677
rfoot -27.8288 -10.7735
rtoes 0.86328
lfemur -15.4045 6.37168 -10.0887
ltibia 30.0317
lfoot -26.9918 21.5623
ltoes -26.9268
511
root 17.3855 16.3259 -0.179931 -135.642 -87.3148 145.065
lowerback -6.25917 1.27261 -1.79899
upperback 2.66211 1.95329 -1.99406
thorax 6.30175 0.922244 -0.845126
lowerneck 3.02844 0.223618 -1.97168
upperneck -5.58554 0.37804 3.61186
head -2.30253 0.118512 1.48267
rclavicle -2.48481e-014 1.98785e-015
rhumerus -42.7468 7.29923 -92.9505
rradius 68.5713
rwrist -1.24791
rhand -27.9234 -20.0163
rfingers 7.12502
rthumb -1.31197 -49.992
lclavicle -2.48481e-014 1.98785e-015
lhumerus -42.8023 -27.5442 93.6135
lradius 71.9721
lwrist 7.4596
lhand -33.0661 -20.9108
lfingers 7.12502
lthumb -6.27803 8.97613
rfemur -23.6855 -3.39086 10.6536
rtibia 40.6189
rfoot -28.0697 -9.71817
rtoes 1.51617
lfemur -15.9792 6.61425 -9.55945
ltibia 30.5279
lfoot -26.0808 21.0048
ltoes -28.6914
512
root 17.3864 16.3202 -0.235651 -136.342 -87.6539 146.047
lowerback -5.94052 1.19087 -1.80941
upperback 2.73117 1.83563 -2.01116
thorax 6.19159 0.864335 -0.876743
lowerneck 3.53141 0.290244 -1.87775
upperneck -7.78838 0.511024 3.78951
head -3.14275 0.147984 1.54718
rclavicle -1.5207e-014 1.07344e-014
rhumerus -43.9676 7.12209 -93.5719
rradius 69.7993
rwrist -1.79336
rhand -26.487 -19.1939
rfingers 7.12502
rthumb 0.0753598 -49.1736
lclavicle -1.5207e-014 1.07344e-014
lhumerus -44.1773 -28.6461 94.0037
lradius 73.4929
lwrist 8.29275
lhand -32.0094 -20.2952
lfingers 7.12502
lthumb -5.25778 9.61956
rfemur -24.0943 -3.892 11.1927
rtibia 40.8471
rfoot -28.3362 -8.70553
rtoes 2.20548
lfemur -16.7457 6.74569 -8.91455
ltibia 31.2936
lfoot -25.1259 20.2923
ltoes -30.5401
513
root 17.3897 16.3095 -0.294559 -137.618 -88.0874 147.625
lowerback -5.59635 1.08655 -1.80641
upperback 2.82147 1.68394 -1.97877
thorax 6.08771 0.789115 -0.867352
lowerneck 3.89208 0.345503 -1.82873
upperneck -9.95278 0.624477 3.97536
head -3.97386 0.161314 1.62664
rclavicle 7.55382e-015 1.94809e-014
rhumerus -45.1911 6.91629 -94.1449
rradius 71.1168
rwrist -2.43701
rhand -24.8078 -18.0634
rfingers 7.12502
rthumb 1.69721 -48.0364
lclavicle 7.55382e-015 1.94809e-014
lhumerus -45.4356 -29.7118 94.3869
lradius 74.9719
lwrist 9.02776
lhand -30.9105 -19.5426
lfingers 7.12502
lthumb -4.19671 10.3958
rfemur -24.5 -4.35736 11.8041
rtibia 41.0789
rfoot -28.5988 -7.87434
rtoes 2.79474
lfemur -17.7336 6.78823 -8.15319
ltibia 32.3903
lfoot -24.1678 19.3796
ltoes -32.219
514
root 17.3951 16.2931 -0.356247 -140.593 -88.5726 150.923
lowerback -5.25145 0.949942 -1.85032
upperback 2.93714 1.4895 -1.86292
thorax 6.0065 0.689 -0.747863
lowerneck 4.04714 0.412967 -1.8347
upperneck -12.4106 0.767839 4.24751
head -4.39591 0.163981 1.57249
rclavicle 1.17283e-014 2.62396e-014
rhumerus -46.4163 6.77694 -94.6288
rradius 72.5251
rwrist -3.20387
rhand -23.2264 -17.1731
rfingers 7.12502
rthumb 3.22444 -47.1285
lclavicle 1.17283e-014 2.62396e-014
lhumerus -46.5678 -30.6408 94.788
lradius 76.4119
lwrist 9.67943
lhand -29.7153 -18.8267
lfingers 7.12502
lthumb -3.04256 11.1314
rfemur -24.9238 -4.79594 12.4674
rtibia 41.3383
rfoot -28.8351 -7.33693
rtoes 2.95479
lfemur -18.9569 6.77864 -7.29485
ltibia 33.8758
lfoot -23.2346 18.2424
ltoes -33.5439
515
root 17.4024 16.2713 -0.419864 -148.073 -89.0751 158.742
lowerback -4.93734 0.798338 -1.95144
upperback 3.08378 1.27725 -1.67333
thorax 5.97367 0.575661 -0.519483
lowerneck 4.0843 0.487165 -1.86258
upperneck -14.5725 0.882308 4.33653
head -5.069 0.168079 1.61364
rclavicle 7.85199e-015 -1.19271e-014
rhumerus -47.6334 6.67912 -95.013
rradius 74.0218
rwrist -4.11869
rhand -21.5969 -16.2498
rfingers 7.12502
rthumb 4.79799 -46.1754
lclavicle 7.85199e-015 -1.19271e-014
lhumerus -47.5772 -31.4417 95.2048
lradius 77.8304
lwrist 10.2721
lhand -28.3714 -18.2742
lfingers 7.12502
lthumb -1.7446 11.6984
rfemur -25.382 -5.26912 13.1659
rtibia 41.6439
rfoot -29.0438 -7.13512
rtoes 2.29268
lfemur -20.4206 6.75812 -6.36693
ltibia 35.798
lfoot -22.2683 16.8802
ltoes -34.5773
516
root 17.4114 16.2453 -0.484388 -173.901 -89.5375 184.918
lowerback -4.6556 0.635466 -2.08982
upperback 3.25745 1.05058 -1.42224
thorax 5.98845 0.451491 -0.206076
lowerneck 3.97305 0.566643 -1.89028
upperneck -16.666 0.978681 4.33455
head -5.70319 0.165075 1.6302
rclavicle 1.07344e-014 -8.74653e-015
rhumerus -48.8453 6.61475 -95.2985
rradius 75.6132
rwrist -5.16805
rhand -19.8443 -15.2445
rfingers 7.12502
rthumb 6.49009 -45.125
lclavicle 1.07344e-014 -8.74653e-015
lhumerus -48.4912 -32.0993 95.6329
lradius 79.2601
lwrist 10.8437
lhand -26.855 -17.9505
lfingers 7.12502
lthumb -0.280063 12.0291
rfemur -25.8846 -5.85555 13.895
rtibia 42.0072
rfoot -29.2317 -7.22792
rtoes 0.531227
lfemur -22.1172 6.74866 -5.39318
ltibia 38.1917
lfoot -21.1895 15.3036
ltoes -35.5406
